<svg width="63" height="41" viewBox="0 0 63 41" fill="none" xmlns="http://www.w3.org/2000/svg">
<path d="M1.74935 21.113C6.56817 20.1435 9.76971 15.7244 12.0183 11.3535C15.2782 5.01701 22.1398 0.83606 30.0277 0.83606C38.9145 0.83606 46.4496 6.65518 49.0693 14.7104C49.2561 15.2851 48.2925 15.5892 47.9526 15.0906C45.2216 11.0843 40.6366 8.45601 35.441 8.45601C28.0936 8.45601 21.9671 12.6409 20.5786 19.4524H59.4467C59.7523 19.4524 60 19.7001 60 20.0057C60 20.2692 59.8142 20.4961 59.5559 20.5481L58.2888 20.8031C53.4775 21.7713 50.3521 26.2619 48.1197 30.6325C44.9184 36.8998 37.9733 40.8361 29.9723 40.8361C21.0855 40.8361 13.5504 35.0169 10.9307 26.9617C10.7439 26.387 11.7075 26.0829 12.0474 26.5815C14.7784 30.5878 19.3634 33.2161 24.559 33.2161C32.0833 33.2161 38.3272 29.5014 39.5134 22.4713H0.553261C0.247704 22.4713 0 22.2236 0 21.918C0 21.6545 0.185818 21.4276 0.44413 21.3756L1.74935 21.113Z" fill="white"/>
</svg>
